<?xml version="1.0" encoding="UTF-8" standalone="no"?>
<!-- Created with Inkscape (http://www.inkscape.org/) -->

<svg
   xmlns:dc="http://purl.org/dc/elements/1.1/"
   xmlns:cc="http://creativecommons.org/ns#"
   xmlns:rdf="http://www.w3.org/1999/02/22-rdf-syntax-ns#"
   xmlns:svg="http://www.w3.org/2000/svg"
   xmlns="http://www.w3.org/2000/svg"
   xmlns:sodipodi="http://sodipodi.sourceforge.net/DTD/sodipodi-0.dtd"
   xmlns:inkscape="http://www.inkscape.org/namespaces/inkscape"
   width="48"
   height="48"
   viewBox="0 0 47.999998 48"
   id="svg3939"
   version="1.1"
   inkscape:version="0.91 r13725"
   sodipodi:docname="pencil.svg">
  <defs
     id="defs3941" />
  <sodipodi:namedview
     id="base"
     pagecolor="#ffffff"
     bordercolor="#666666"
     borderopacity="1.0"
     inkscape:pageopacity="0.0"
     inkscape:pageshadow="2"
     inkscape:zoom="8.6036806"
     inkscape:cx="0.3305775"
     inkscape:cy="19.275804"
     inkscape:document-units="px"
     inkscape:current-layer="g3939"
     showgrid="false"
     fit-margin-top="0"
     fit-margin-left="0"
     fit-margin-right="0"
     fit-margin-bottom="0"
     units="px"
     inkscape:window-width="1536"
     inkscape:window-height="811"
     inkscape:window-x="-8"
     inkscape:window-y="-8"
     inkscape:window-maximized="1"
     showguides="false" />
  <metadata
     id="metadata3944">
    <rdf:RDF>
      <cc:Work
         rdf:about="">
        <dc:format>image/svg+xml</dc:format>
        <dc:type
           rdf:resource="http://purl.org/dc/dcmitype/StillImage" />
        <dc:title></dc:title>
      </cc:Work>
    </rdf:RDF>
  </metadata>
  <g
     inkscape:label="Layer 1"
     inkscape:groupmode="layer"
     id="layer1"
     transform="translate(-351,-508.36179)">
    <g
       id="g3920"
       transform="matrix(0.63937046,-0.63937046,0.63937046,0.63937046,603.00444,-274.8486)">
      <path
         sodipodi:type="inkscape:offset"
         inkscape:radius="0"
         inkscape:original="M -776.89453 476.03125 L -783.25195 476.0332 L -819.40039 476.0332 C -820.06707 476.03291 -820.71472 476.2539 -821.24219 476.66992 L -828.29883 482.23633 L -828.30078 482.23633 A 0.019935034 0.019935034 0 0 0 -828.30273 482.23633 A 0.019935034 0.019935034 0 0 0 -828.30469 482.23828 A 0.019935034 0.019935034 0 0 0 -828.30664 482.23828 A 0.019935034 0.019935034 0 0 0 -828.30859 482.24023 C -829.78659 483.40631 -829.78658 485.73821 -828.30859 486.9043 A 0.019935034 0.019935034 0 0 0 -828.30664 486.90625 A 0.019935034 0.019935034 0 0 0 -828.30469 486.9082 A 0.019935034 0.019935034 0 0 0 -828.30273 486.9082 A 0.019935034 0.019935034 0 0 0 -828.30078 486.9082 L -828.29883 486.9082 L -821.24219 492.47461 C -820.71484 492.89048 -820.06718 493.11164 -819.40039 493.11133 L -778.2207 493.11133 L -776.89453 493.11328 C -776.67919 493.11333 -776.46458 493.07066 -776.26562 492.98828 C -776.06668 492.9059 -775.88273 492.78508 -775.73047 492.63281 C -775.5782 492.48055 -775.45738 492.29661 -775.375 492.09766 C -775.29262 491.8987 -775.24995 491.68409 -775.25 491.46875 L -775.25 477.67578 C -775.25011 477.45678 -775.29362 477.23882 -775.37891 477.03711 C -775.46293 476.8384 -775.5884 476.65717 -775.74219 476.50586 A 0.019935034 0.019935034 0 0 0 -775.74219 476.50391 A 0.019935034 0.019935034 0 0 0 -775.74414 476.50195 A 0.019935034 0.019935034 0 0 0 -775.74414 476.5 A 0.019935034 0.019935034 0 0 0 -775.74609 476.49805 A 0.019935034 0.019935034 0 0 0 -775.74609 476.49609 A 0.019935034 0.019935034 0 0 0 -775.74805 476.49609 C -775.89973 476.34883 -776.07945 476.22978 -776.27539 476.15039 C -776.47133 476.071 -776.68312 476.0311 -776.89453 476.03125 z M -767.43555 476.18555 L -773.4668 476.1875 A 0.019935034 0.019935034 0 0 0 -773.46875 476.1875 A 0.019935034 0.019935034 0 0 0 -773.4707 476.1875 A 0.019935034 0.019935034 0 0 0 -773.47266 476.1875 A 0.019935034 0.019935034 0 0 0 -773.47461 476.18945 A 0.019935034 0.019935034 0 0 0 -773.47656 476.18945 A 0.019935034 0.019935034 0 0 0 -773.47852 476.19141 A 0.019935034 0.019935034 0 0 0 -773.48047 476.19141 A 0.019935034 0.019935034 0 0 0 -773.48047 476.19336 A 0.019935034 0.019935034 0 0 0 -773.48242 476.19531 A 0.019935034 0.019935034 0 0 0 -773.48438 476.19531 A 0.019935034 0.019935034 0 0 0 -773.48438 476.19727 A 0.019935034 0.019935034 0 0 0 -773.48633 476.19922 A 0.019935034 0.019935034 0 0 0 -773.48633 476.20117 A 0.019935034 0.019935034 0 0 0 -773.48633 476.20312 A 0.019935034 0.019935034 0 0 0 -773.48633 476.20508 A 0.019935034 0.019935034 0 0 0 -773.48633 476.20703 L -773.48633 492.9375 A 0.019935034 0.019935034 0 0 0 -773.48633 492.93945 A 0.019935034 0.019935034 0 0 0 -773.48633 492.94141 A 0.019935034 0.019935034 0 0 0 -773.48633 492.94336 A 0.019935034 0.019935034 0 0 0 -773.48438 492.94531 A 0.019935034 0.019935034 0 0 0 -773.48438 492.94727 A 0.019935034 0.019935034 0 0 0 -773.48242 492.94922 A 0.019935034 0.019935034 0 0 0 -773.48242 492.95117 A 0.019935034 0.019935034 0 0 0 -773.48047 492.95117 A 0.019935034 0.019935034 0 0 0 -773.47852 492.95312 A 0.019935034 0.019935034 0 0 0 -773.47852 492.95508 A 0.019935034 0.019935034 0 0 0 -773.47656 492.95508 A 0.019935034 0.019935034 0 0 0 -773.47461 492.95703 A 0.019935034 0.019935034 0 0 0 -773.47266 492.95703 A 0.019935034 0.019935034 0 0 0 -773.4707 492.95703 A 0.019935034 0.019935034 0 0 0 -773.46875 492.95703 A 0.019935034 0.019935034 0 0 0 -773.4668 492.95703 L -767.43555 492.95898 C -762.81462 492.95895 -758.96096 489.19314 -758.96094 484.57227 C -758.96095 482.26183 -759.92572 480.16509 -761.4668 478.64648 C -763.00786 477.12788 -765.12507 476.18555 -767.43555 476.18555 z M -767.74805 481.92578 L -767.43555 481.92773 C -766.64086 481.92773 -765.95744 482.21477 -765.47266 482.68945 C -764.98863 483.16405 -764.70117 483.82569 -764.70117 484.57031 C -764.70117 486.06092 -765.84621 487.21679 -767.43555 487.2168 L -767.74805 487.21875 L -767.74805 481.92578 z M -818.25781 481.97656 L -817.36719 481.97656 L -817.36719 487.16797 L -818.25781 487.16797 L -821.62695 484.57031 L -818.25781 481.97656 z M -814.39258 481.97656 L -781.19531 481.97656 L -781.19531 487.16797 L -814.39258 487.16797 L -814.39258 481.97656 z "
         style="color:#000000;font-style:normal;font-variant:normal;font-weight:normal;font-stretch:normal;font-size:medium;line-height:normal;font-family:sans-serif;text-indent:0;text-align:start;text-decoration:none;text-decoration-line:none;text-decoration-style:solid;text-decoration-color:#000000;letter-spacing:normal;word-spacing:normal;text-transform:none;direction:ltr;block-progression:tb;writing-mode:lr-tb;baseline-shift:baseline;text-anchor:start;white-space:normal;clip-rule:nonzero;display:inline;overflow:visible;visibility:visible;opacity:0.3;isolation:auto;mix-blend-mode:normal;color-interpolation:sRGB;color-interpolation-filters:linearRGB;solid-color:#000000;solid-opacity:1;fill:#000000;fill-opacity:1;fill-rule:nonzero;stroke:none;stroke-width:3.24886465;stroke-linecap:round;stroke-linejoin:round;stroke-miterlimit:4;stroke-dasharray:none;stroke-dashoffset:0;stroke-opacity:1;color-rendering:auto;image-rendering:auto;shape-rendering:auto;text-rendering:auto;enable-background:accumulate"
         id="path3848"
         d="m -776.89453,476.03125 -6.35742,0.002 -36.14844,0 c -0.66668,-2.9e-4 -1.31433,0.2207 -1.8418,0.63672 l -7.05664,5.56641 -0.002,0 a 0.01993503,0.01993503 0 0 0 -0.002,0 0.01993503,0.01993503 0 0 0 -0.002,0.002 0.01993503,0.01993503 0 0 0 -0.002,0 0.01993503,0.01993503 0 0 0 -0.002,0.002 c -1.478,1.16608 -1.47799,3.49798 0,4.66407 a 0.01993503,0.01993503 0 0 0 0.002,0.002 0.01993503,0.01993503 0 0 0 0.002,0.002 0.01993503,0.01993503 0 0 0 0.002,0 0.01993503,0.01993503 0 0 0 0.002,0 l 0.002,0 7.05664,5.56641 c 0.52735,0.41587 1.17501,0.63703 1.8418,0.63672 l 41.17969,0 1.32617,0.002 c 0.21534,5e-5 0.42995,-0.0426 0.62891,-0.125 0.19894,-0.0824 0.38289,-0.2032 0.53515,-0.35547 0.15227,-0.15226 0.27309,-0.3362 0.35547,-0.53515 0.0824,-0.19896 0.12505,-0.41357 0.125,-0.62891 l 0,-13.79297 c -1.1e-4,-0.219 -0.0436,-0.43696 -0.12891,-0.63867 -0.084,-0.19871 -0.20949,-0.37994 -0.36328,-0.53125 a 0.01993503,0.01993503 0 0 0 0,-0.002 0.01993503,0.01993503 0 0 0 -0.002,-0.002 0.01993503,0.01993503 0 0 0 0,-0.002 0.01993503,0.01993503 0 0 0 -0.002,-0.002 0.01993503,0.01993503 0 0 0 0,-0.002 0.01993503,0.01993503 0 0 0 -0.002,0 c -0.15168,-0.14726 -0.3314,-0.26631 -0.52734,-0.3457 -0.19594,-0.0794 -0.40773,-0.11929 -0.61914,-0.11914 z m 9.45898,0.1543 -6.03125,0.002 a 0.01993503,0.01993503 0 0 0 -0.002,0 0.01993503,0.01993503 0 0 0 -0.002,0 0.01993503,0.01993503 0 0 0 -0.002,0 0.01993503,0.01993503 0 0 0 -0.002,0.002 0.01993503,0.01993503 0 0 0 -0.002,0 0.01993503,0.01993503 0 0 0 -0.002,0.002 0.01993503,0.01993503 0 0 0 -0.002,0 0.01993503,0.01993503 0 0 0 0,0.002 0.01993503,0.01993503 0 0 0 -0.002,0.002 0.01993503,0.01993503 0 0 0 -0.002,0 0.01993503,0.01993503 0 0 0 0,0.002 0.01993503,0.01993503 0 0 0 -0.002,0.002 0.01993503,0.01993503 0 0 0 0,0.002 0.01993503,0.01993503 0 0 0 0,0.002 0.01993503,0.01993503 0 0 0 0,0.002 0.01993503,0.01993503 0 0 0 0,0.002 l 0,16.73047 a 0.01993503,0.01993503 0 0 0 0,0.002 0.01993503,0.01993503 0 0 0 0,0.002 0.01993503,0.01993503 0 0 0 0,0.002 0.01993503,0.01993503 0 0 0 0.002,0.002 0.01993503,0.01993503 0 0 0 0,0.002 0.01993503,0.01993503 0 0 0 0.002,0.002 0.01993503,0.01993503 0 0 0 0,0.002 0.01993503,0.01993503 0 0 0 0.002,0 0.01993503,0.01993503 0 0 0 0.002,0.002 0.01993503,0.01993503 0 0 0 0,0.002 0.01993503,0.01993503 0 0 0 0.002,0 0.01993503,0.01993503 0 0 0 0.002,0.002 0.01993503,0.01993503 0 0 0 0.002,0 0.01993503,0.01993503 0 0 0 0.002,0 0.01993503,0.01993503 0 0 0 0.002,0 0.01993503,0.01993503 0 0 0 0.002,0 l 6.03125,0.002 c 4.62093,-3e-5 8.47459,-3.76584 8.47461,-8.38671 -10e-6,-2.31044 -0.96478,-4.40718 -2.50586,-5.92579 -1.54106,-1.5186 -3.65827,-2.46093 -5.96875,-2.46093 z m -0.3125,5.74023 0.3125,0.002 c 0.79469,0 1.47811,0.28704 1.96289,0.76172 0.48403,0.4746 0.77149,1.13624 0.77149,1.88086 0,1.49061 -1.14504,2.64648 -2.73438,2.64649 l -0.3125,0.002 0,-5.29297 z m -50.50976,0.0508 0.89062,0 0,5.19141 -0.89062,0 -3.36914,-2.59766 3.36914,-2.59375 z m 3.86523,0 33.19727,0 0,5.19141 -33.19727,0 0,-5.19141 z"
         transform="translate(-78.624694,-93.792759)" />
      <g
         id="g3939"
         transform="matrix(1.1877036,0,0,1.1877036,151.6613,-85.020408)">
        <path
           sodipodi:nodetypes="cccccc"
           inkscape:connector-curvature="0"
           id="path3866"
           d="m -794.85167,448.48087 -31.0742,0 -6.90745,4.78142 6.90744,4.77999 31.07421,-1e-5 z"
           style="fill:none;fill-rule:evenodd;stroke:#000000;stroke-width:1.91056371;stroke-linecap:butt;stroke-linejoin:miter;stroke-miterlimit:4;stroke-dasharray:none;stroke-opacity:1" />
        <path
           inkscape:connector-curvature="0"
           id="path3871"
           d="m -825.29216,448.2771 -1e-5,9.35672"
           style="fill:none;fill-rule:evenodd;stroke:#000000;stroke-width:1.91056371;stroke-linecap:butt;stroke-linejoin:miter;stroke-miterlimit:4;stroke-dasharray:none;stroke-opacity:1" />
        <path
           sodipodi:nodetypes="cccccccc"
           inkscape:connector-curvature="0"
           id="path3874"
           d="m -785.6726,453.25082 c -1.2e-4,-2.64034 -1.03728,-4.7808 -2.31683,-4.78143 l -0.3945,2e-5 -3.24356,-10e-6 -1e-5,9.56141 3.24357,0 0.39451,-10e-6 c 1.27927,-6.1e-4 2.31631,-2.14019 2.31682,-4.77998 z"
           style="color:#000000;clip-rule:nonzero;display:inline;overflow:visible;visibility:visible;opacity:1;isolation:auto;mix-blend-mode:normal;color-interpolation:sRGB;color-interpolation-filters:linearRGB;solid-color:#000000;solid-opacity:1;fill:none;fill-opacity:1;fill-rule:evenodd;stroke:#000000;stroke-width:1.90854299;stroke-linecap:butt;stroke-linejoin:miter;stroke-miterlimit:4;stroke-dasharray:none;stroke-dashoffset:0;stroke-opacity:1;color-rendering:auto;image-rendering:auto;shape-rendering:auto;text-rendering:auto;enable-background:accumulate" />
        <path
           inkscape:connector-curvature="0"
           id="path3911"
           d="m -830.47687,452.00781 0,1.75501 -1.38009,-0.70187 z"
           style="fill:#000000;fill-opacity:1;fill-rule:evenodd;stroke:#000000;stroke-width:1.30774057;stroke-linecap:butt;stroke-linejoin:miter;stroke-miterlimit:4;stroke-dasharray:none;stroke-opacity:1" />
      </g>
    </g>
  </g>
</svg>
